<mxfile host="app.diagrams.net" agent="Mozilla/5.0 (Windows NT 10.0; Win64; x64) AppleWebKit/537.36 (KHTML, like Gecko) Chrome/133.0.0.0 Safari/537.36" version="25.0.3">
  <diagram name="第 1 页" id="v_T8ZU72dg1JrgpUGlI7">
    <mxGraphModel dx="2440" dy="1292" grid="1" gridSize="10" guides="1" tooltips="1" connect="1" arrows="1" fold="1" page="1" pageScale="1" pageWidth="1169" pageHeight="827" math="0" shadow="0">
      <root>
        <mxCell id="0" />
        <mxCell id="1" parent="0" />
        <mxCell id="8iZhRnss7Xx4lnV-uJ5X-5" style="edgeStyle=orthogonalEdgeStyle;rounded=0;orthogonalLoop=1;jettySize=auto;html=1;entryX=0;entryY=0.5;entryDx=0;entryDy=0;" edge="1" parent="1" source="8iZhRnss7Xx4lnV-uJ5X-1" target="8iZhRnss7Xx4lnV-uJ5X-3">
          <mxGeometry relative="1" as="geometry" />
        </mxCell>
        <mxCell id="8iZhRnss7Xx4lnV-uJ5X-1" value="&lt;font face=&quot;Helvetica&quot;&gt;9C-U-HTP100-Part1(嵌于&lt;span style=&quot;background-color: initial;&quot;&gt;STM32G070CBT6）&lt;/span&gt;&lt;/font&gt;&lt;div&gt;&lt;p class=&quot;MsoNormal&quot;&gt;&lt;span style=&quot;font-family: 宋体;&quot;&gt;&lt;font style=&quot;font-size: 16px;&quot;&gt;挤压控制和加热控制&lt;/font&gt;&lt;/span&gt;&lt;/p&gt;&lt;/div&gt;" style="rounded=1;whiteSpace=wrap;html=1;" vertex="1" parent="1">
          <mxGeometry x="20" y="320" width="150" height="100" as="geometry" />
        </mxCell>
        <mxCell id="8iZhRnss7Xx4lnV-uJ5X-2" value="&lt;font&gt;&lt;font face=&quot;Helvetica&quot;&gt;9C-U-HTP100-Part2(嵌于&lt;/font&gt;&lt;span style=&quot;font-family: 微软雅黑; background-color: initial;&quot;&gt;&lt;font&gt;STM32H750XBH6&lt;/font&gt;&lt;/span&gt;&lt;span style=&quot;background-color: initial;&quot;&gt;）&lt;/span&gt;&lt;br&gt;&lt;/font&gt;&lt;div&gt;&lt;p class=&quot;MsoNormal&quot;&gt;&lt;span style=&quot;font-family: 宋体;&quot;&gt;&lt;font style=&quot;font-size: 16px;&quot;&gt;LCD人机界面交互&lt;/font&gt;&lt;/span&gt;&lt;/p&gt;&lt;/div&gt;" style="rounded=1;whiteSpace=wrap;html=1;" vertex="1" parent="1">
          <mxGeometry x="500" y="110" width="150" height="100" as="geometry" />
        </mxCell>
        <mxCell id="8iZhRnss7Xx4lnV-uJ5X-3" value="控制眼盾加热的波形" style="rounded=1;whiteSpace=wrap;html=1;" vertex="1" parent="1">
          <mxGeometry x="280" y="340" width="120" height="60" as="geometry" />
        </mxCell>
        <mxCell id="8iZhRnss7Xx4lnV-uJ5X-4" value="" style="rounded=1;whiteSpace=wrap;html=1;" vertex="1" parent="1">
          <mxGeometry x="740" y="500" width="120" height="60" as="geometry" />
        </mxCell>
        <mxCell id="8iZhRnss7Xx4lnV-uJ5X-6" value="freertos" style="text;html=1;align=center;verticalAlign=middle;whiteSpace=wrap;rounded=0;" vertex="1" parent="1">
          <mxGeometry x="200" y="370" width="60" height="30" as="geometry" />
        </mxCell>
      </root>
    </mxGraphModel>
  </diagram>
</mxfile>
